# xmcd
# Copyright (C) 1995-1998 Ti Kan
#
# Track frame offsets:
#       150
#       14940
#       26070
#       33147
#       46305
#       61677
#       75805
#       91095
#       104975
#       117300
#       121372
#       134710
#       149002
#       164135
#       186830
#       188305
#       206990
#       208690
#       220985
#
# Disc length: 3023 seconds
#
# Revision: 0
# Processed by: cddbd v1.5.2PL0 Copyright (c) Steve Scherf et al.
# Submitted via: CD-Import v1.0
#
DISCID=200bcd13
DTITLE=Jimi Hendrix - Bbc Sessions Disc 2
DYEAR=1998
DGENRE=
TTITLE0=Purple Haze
TTITLE1=Killing Floor
TTITLE2=Radio One
TTITLE3=Wait Until Tomorrow
TTITLE4=Day Tripper
TTITLE5=Spanish Castle Magic
TTITLE6=Jammin'
TTITLE7=I Was Made To Love Her
TTITLE8=Foxey Lady
TTITLE9=A Brand New Sound
TTITLE10=Hey Joe
TTITLE11=Manic Depression
TTITLE12=Driving South
TTITLE13=Hear My Train A Comin'
TTITLE14=A Happening For Lulu
TTITLE15=Voodoo Child (Slight Return)
TTITLE16=Lulu Introduction
TTITLE17=Hey Joe
TTITLE18=Sunshine Of Your Love
EXTD=
EXTT0=
EXTT1=
EXTT2=
EXTT3=
EXTT4=
EXTT5=
EXTT6=
EXTT7=
EXTT8=
EXTT9=
EXTT10=
EXTT11=
EXTT12=
EXTT13=
EXTT14=
EXTT15=
EXTT16=
EXTT17=
EXTT18=
PLAYORDER=
